<svg aria-hidden="true" class="_11ni0ce2e _11ni0ceb p0ac3m1 p0ac3m3 p0ac3ma" fill="currentColor" height="48" viewBox="0 0 48 48" width="48" xmlns="http://www.w3.org/2000/svg"><path d="M39.2579 9H9C5.68629 9 3 11.6863 3 15V33C3 36.3137 5.68629 39 9 39H17V36H9C7.34315 36 6 34.6569 6 33V15C6 13.3431 7.34315 12 9 12H32.9091L33 11.985L33 12H39.2579L33.8788 17.3789L36 19.5L45 10.5L36 1.5L33.8788 3.62115L39.2579 9Z" fill="currentColor"></path><path clip-rule="evenodd" d="M38 28C36.3431 28 35 29.3431 35 31V41C35 42.6569 36.3431 44 38 44H42C43.6569 44 45 42.6569 45 41V31C45 29.3431 43.6569 28 42 28H38ZM42 31H38V41H42V31Z" fill="currentColor" fill-rule="evenodd"></path><path d="M24 31H28V34.5H24V37.5H28V41H24V40H21V41C21 42.6569 22.3431 44 24 44H28C29.6569 44 31 42.6569 31 41V31C31 29.3431 29.6569 28 28 28H24C22.3431 28 21 29.3431 21 31V32H24V31Z" fill="currentColor"></path></svg>
